<?xml version="1.0" encoding="UTF-8"?>
<svg id="Layer_1" data-name="Layer 1" xmlns="http://www.w3.org/2000/svg" viewBox="0 0 512 512">
  <defs>
    <style>
      .cls-1 {
        fill: rgba(245, 130, 32, .9);
      }

      .cls-2 {
        fill: #111;
        stroke: #111;
        stroke-miterlimit: 10;
        stroke-width: 3px;
      }
    </style>
  </defs>
  <rect class="cls-1" width="512" height="512" rx="114.09" ry="114.09"/>
  <g>
    <ellipse class="cls-2" cx="284.49" cy="121.46" rx="36.63" ry="35.08"/>
    <polygon class="cls-2" points="136.96 176.73 321.12 174.51 388.21 187.82 404.76 145.98 423.29 150.42 408.07 218.26 324.65 212.55 340.54 439.54 316.04 439.54 288.9 300.05 270.36 439.54 245.21 439.54 244.54 210.65 138.07 200.51 136.96 176.73"/>
    <g>
      <polygon class="cls-2" points="88.71 97.96 115.11 72.46 154.12 72.46 179.92 97.96 179.92 136.78 154.12 160.25 114.81 160.25 88.71 136.2 88.71 97.96"/>
      <rect class="cls-2" x="128.91" y="160.25" width="12" height="279.29"/>
    </g>
  </g>
</svg>