<svg width="256" height="256" viewBox="0 0 256 256" fill="none" xmlns="http://www.w3.org/2000/svg">
  <!-- Rounded background -->
  <rect width="256" height="256" rx="40" fill="white"/>
  
  <!-- Flowing M shape with blue gradient -->
  <path d="M63.1759 143.179C88.7556 127.091 100.918 142.509 111.584 162.787C102.758 178.858 96.9185 188.665 94.0658 192.209C88.6865 198.894 82.8182 203.956 75.6009 206.876C60.4279 214.007 41.5658 214.34 27 205.524L63.1759 143.179Z" fill="url(#paint0_linear_4107_1209904)"/>
  <path fill-rule="evenodd" clip-rule="evenodd" d="M242.155 134.863C219.02 94.3851 195.105 56.2488 167.634 112.191C163.875 119.383 161.136 133.359 155 133.359V133.288C148.864 133.288 146.125 119.312 142.367 112.12C114.895 56.1778 90.9802 94.3141 67.8448 134.792C66.1037 137.845 64.4312 140.758 63 143.29C116.019 109.727 111.555 211.123 155 211.929V212C198.446 211.194 193.981 109.798 247 143.36C245.57 140.829 243.897 137.916 242.155 134.863" fill="url(#paint1_linear_4107_1209904)"/>
  <path fill-rule="evenodd" clip-rule="evenodd" d="M245 212C258.254 212 269 201.254 269 188C269 174.746 258.254 164 245 164C231.746 164 221 174.746 221 188C221 201.254 231.746 212 245 212" fill="url(#paint2_linear_4107_1209904)"/>
  
  <defs>
    <!-- Blue gradient instead of green -->
    <linearGradient id="paint0_linear_4107_1209904" x1="96" y1="103.895" x2="52.7615" y2="149.812" gradientUnits="userSpaceOnUse">
      <stop stop-color="#2E5BBA"/>
      <stop offset="1" stop-color="#4A90E2"/>
    </linearGradient>
    <linearGradient id="paint1_linear_4107_1209904" x1="63" y1="84" x2="63" y2="212" gradientUnits="userSpaceOnUse">
      <stop stop-color="#4A90E2"/>
      <stop offset="1" stop-color="#2E5BBA"/>
    </linearGradient>
    <linearGradient id="paint2_linear_4107_1209904" x1="221" y1="164" x2="221" y2="212" gradientUnits="userSpaceOnUse">
      <stop stop-color="#4A90E2"/>
      <stop offset="1" stop-color="#2E5BBA"/>
    </linearGradient>
  </defs>
</svg>
